<?xml version="1.0" standalone="no"?>
<!DOCTYPE svg PUBLIC "-//W3C//DTD SVG 20010904//EN"
 "http://www.w3.org/TR/2001/REC-SVG-20010904/DTD/svg10.dtd">
<svg version="1.0" xmlns="http://www.w3.org/2000/svg"
 width="300.000000pt" height="300.000000pt" viewBox="0 0 300.000000 300.000000"
 preserveAspectRatio="xMidYMid meet">
<metadata>
Created by potrace 1.11, written by Peter Selinger 2001-2013
</metadata>
<g transform="translate(0.000000,300.000000) scale(0.100000,-0.100000)"
fill="#000000" stroke="none">
<path d="M1585 2511 c-52 -23 -57 -30 -98 -136 -161 -418 -393 -943 -653
-1473 -74 -150 -134 -285 -134 -300 0 -45 20 -101 39 -111 13 -7 23 -4 42 13
64 62 72 78 309 601 60 132 134 281 173 347 23 40 48 84 55 98 41 84 203 316
265 381 86 89 169 145 230 154 45 8 57 -11 46 -70 -8 -41 -52 -144 -81 -190
-83 -129 -188 -223 -335 -299 -39 -20 -77 -43 -83 -51 -16 -19 -5 -118 17
-164 25 -50 73 -75 143 -74 60 0 147 25 190 52 36 24 179 172 320 331 36 40
70 78 75 84 33 34 128 160 164 215 45 70 43 83 -10 96 -23 6 -33 -2 -95 -77
-210 -254 -465 -506 -536 -531 -31 -11 -9 17 36 46 119 75 217 203 298 388
135 307 104 431 -102 416 -87 -7 -185 -35 -228 -66 -17 -11 -32 -21 -35 -21
-3 0 17 37 44 81 46 77 56 105 63 174 6 57 -24 105 -66 105 -7 0 -31 -9 -53
-19z"/>
</g>
</svg>
